<svg id="Layer_1" data-name="Layer 1" xmlns="http://www.w3.org/2000/svg" viewBox="0 0 64 64"><defs><style>.cls-1{fill:#231f20;}</style></defs><title>task-completed</title><path class="cls-1" d="M52,64H12A12,12,0,0,1,0,52V12A12,12,0,0,1,12,0H52A12,12,0,0,1,64,12V52A12,12,0,0,1,52,64ZM12,6a6,6,0,0,0-6,6V52a6,6,0,0,0,6,6H52a6,6,0,0,0,6-6V12a6,6,0,0,0-6-6H12ZM32.6,51.86a4,4,0,0,1-2.83-1.17L13.41,34.33a4,4,0,0,1,0-5.66l2.86-2.86a4,4,0,0,1,5.66,0L38.29,42.17a4,4,0,0,1,0,5.66l-2.86,2.86A4,4,0,0,1,32.6,51.86ZM19.07,31.5L32.6,45l0,0L19.1,31.47ZM35.32,49a4,4,0,0,1-2.83-1.17L29.63,45a4,4,0,0,1,0-5.66l29.2-29.2,1.92,0.7c2,0.78,2,2.71,2,3.87,0,0.07,0,.16,0,0.25L63,15.16l0.06,7.78-24.9,24.9A4,4,0,0,1,35.32,49Zm0-6.86,0,0L57,20.48V20.41Z"/></svg>